<?xml version="1.0" standalone="no"?>
<!DOCTYPE svg PUBLIC "-//W3C//DTD SVG 20010904//EN"
 "http://www.w3.org/TR/2001/REC-SVG-20010904/DTD/svg10.dtd">
<svg version="1.0" xmlns="http://www.w3.org/2000/svg"
 width="1280.000000pt" height="1024.000000pt" viewBox="0 0 1280.000000 1024.000000"
 preserveAspectRatio="xMidYMid meet">
<metadata>
Created by potrace 1.16, written by Peter Selinger 2001-2019
</metadata>
<g transform="translate(0.000000,1024.000000) scale(0.100000,-0.100000)"
fill="#000000" stroke="none">
<path d="M3820 9873 c-126 -24 -252 -127 -339 -278 -157 -272 -220 -789 -145
-1185 l15 -82 -35 -53 c-79 -120 -148 -288 -182 -445 -25 -118 -25 -372 0
-490 40 -185 125 -374 232 -516 l61 -81 -18 -25 c-10 -14 -32 -53 -49 -87 -99
-200 -96 -464 8 -670 l37 -75 -38 -72 c-89 -172 -104 -385 -40 -589 l15 -50
-70 -71 c-253 -258 -292 -658 -93 -947 l29 -43 -30 -45 c-143 -208 -164 -518
-52 -742 58 -114 155 -228 250 -290 l40 -27 12 -157 c31 -419 154 -781 343
-1013 l59 -73 0 -503 c0 -558 1 -566 69 -673 100 -155 251 -231 462 -231 127
0 189 12 277 56 137 67 238 204 262 354 5 37 10 267 10 535 l0 471 30 34 30
35 30 -35 29 -35 1 -480 c0 -527 4 -563 59 -673 63 -124 199 -225 340 -252 78
-15 236 -12 309 5 166 39 303 166 353 326 18 56 19 98 19 563 l0 503 49 60
c96 120 202 317 241 451 12 40 30 57 30 30 1 -27 80 -213 129 -300 28 -51 78
-127 111 -168 l60 -75 0 -502 c0 -557 1 -565 69 -672 100 -155 251 -231 462
-231 127 0 189 12 277 56 136 66 239 205 262 354 5 37 10 267 10 534 l0 469
33 43 c17 24 35 44 38 44 4 0 23 -20 43 -44 l36 -44 0 -494 c0 -538 2 -557 58
-662 40 -76 135 -167 212 -204 79 -37 156 -52 270 -52 114 0 191 15 270 52 77
37 172 128 212 204 56 105 58 124 58 665 0 491 0 496 21 515 32 29 136 188
179 273 194 389 257 948 159 1431 -25 124 -82 306 -125 399 -19 41 -31 78 -27
81 5 4 28 15 53 24 130 50 275 166 350 281 245 376 13 839 -485 966 -125 32
-322 32 -447 1 -105 -26 -193 -62 -267 -109 l-54 -35 -36 21 c-64 39 -181 90
-263 116 -173 55 -177 55 -1148 55 l-897 0 5 133 c6 158 -14 255 -77 379 l-39
78 35 66 c56 105 74 175 80 310 4 93 2 139 -11 200 -23 102 -92 244 -156 318
l-50 58 19 32 c92 151 140 260 178 406 35 132 43 375 18 517 -30 170 -95 337
-187 481 l-34 53 12 62 c41 195 43 532 4 752 -75 431 -250 684 -504 728 -327
56 -578 -268 -647 -836 l-12 -98 -96 3 -96 3 -7 75 c-36 370 -191 702 -375
802 -87 48 -202 68 -293 51z m114 -531 c51 -100 106 -338 106 -458 0 -40 -1
-42 -47 -59 -27 -9 -90 -39 -140 -66 l-93 -49 0 75 c0 111 19 268 46 374 24
94 80 231 95 231 5 0 20 -21 33 -48z m1377 6 c64 -126 109 -341 109 -522 l0
-111 -127 62 c-70 35 -133 63 -140 63 -9 0 -11 17 -7 68 7 84 30 220 50 292
19 67 74 190 85 190 5 0 18 -19 30 -42z m-511 -884 c473 -89 808 -450 813
-874 1 -126 -19 -220 -73 -337 -48 -103 -87 -160 -173 -250 -37 -40 -77 -92
-87 -115 -28 -61 -26 -133 6 -196 28 -56 58 -82 144 -123 108 -52 174 -153
173 -265 -1 -84 -30 -145 -108 -224 -74 -75 -95 -118 -95 -193 0 -69 35 -140
94 -190 84 -70 124 -172 105 -270 -13 -71 -35 -110 -99 -181 -44 -49 -60 -76
-70 -115 -25 -105 18 -205 109 -254 l49 -27 1063 0 c658 0 1098 -4 1153 -10
191 -22 342 -96 481 -235 123 -123 181 -226 224 -399 23 -92 50 -138 104 -175
88 -60 180 -179 236 -304 242 -539 154 -1353 -179 -1672 -23 -22 -51 -58 -63
-80 -22 -39 -22 -50 -27 -595 l-5 -555 -75 0 -75 0 -5 555 c-5 545 -5 556 -27
595 -12 22 -40 58 -63 80 -116 111 -202 282 -275 547 -18 67 -60 119 -119 151
l-41 22 -824 3 c-567 2 -841 -1 -877 -8 -65 -14 -127 -58 -153 -107 -10 -21
-30 -82 -45 -135 -54 -198 -141 -362 -245 -463 -96 -93 -91 -55 -91 -669 0
-351 -4 -544 -10 -557 -9 -16 -22 -19 -73 -19 -36 0 -68 5 -75 12 -9 9 -12
143 -12 542 0 343 -4 545 -11 569 -6 24 -35 65 -75 109 -101 110 -161 210
-219 365 -32 84 -65 127 -118 156 -40 21 -56 22 -347 28 -203 4 -318 10 -345
19 -74 23 -152 68 -210 122 -106 97 -160 208 -175 363 -15 163 -73 234 -212
256 -147 24 -251 127 -265 264 -12 111 47 216 163 290 95 61 134 169 99 274
-17 52 -51 88 -155 164 -87 64 -131 202 -96 303 34 101 100 165 206 199 79 25
119 52 151 103 61 97 48 197 -38 294 -73 81 -96 135 -97 218 -1 88 28 148 109
230 71 72 95 118 95 182 0 75 -18 116 -77 176 -82 85 -100 111 -118 175 -33
113 3 208 115 307 89 80 110 118 110 202 -1 87 -24 132 -104 202 -335 294
-401 730 -165 1091 143 220 410 386 698 435 83 14 304 11 391 -6z m4242 -3655
c29 -7 72 -20 95 -30 52 -22 127 -89 143 -129 40 -97 -80 -218 -250 -250 -74
-14 -100 -13 -100 5 0 31 -75 200 -126 285 -30 49 -54 91 -54 93 0 4 58 21
105 31 41 8 136 6 187 -5z m-1432 -2496 c0 -14 -72 -137 -109 -186 -22 -29
-65 -74 -95 -100 l-56 -48 0 -568 c0 -428 -3 -570 -12 -579 -16 -16 -130 -16
-146 0 -9 9 -12 153 -12 585 0 315 -4 573 -8 573 -4 0 -39 31 -77 69 -60 60
-150 188 -171 244 -6 16 15 17 340 17 190 0 346 -3 346 -7z m-3432 -110 c92
-34 197 -54 326 -62 l111 -6 -82 -81 -83 -80 0 -565 c0 -426 -3 -568 -12 -577
-7 -7 -39 -12 -73 -12 -34 0 -66 5 -73 12 -9 9 -12 153 -12 585 0 315 -3 573
-8 573 -17 0 -139 130 -179 192 -24 36 -43 69 -43 73 0 3 14 -2 31 -11 18 -9
61 -27 97 -41z"/>
<path d="M4025 8071 c-79 -35 -122 -115 -112 -203 8 -62 38 -112 90 -146 34
-23 52 -27 107 -27 55 0 73 4 107 27 52 34 82 84 90 146 14 121 -75 222 -197
222 -25 0 -63 -9 -85 -19z"/>
<path d="M4982 8069 c-175 -87 -128 -350 67 -376 116 -16 221 78 221 197 0
149 -155 245 -288 179z"/>
<path d="M4424 7536 c-17 -8 -40 -26 -52 -41 -24 -30 -45 -95 -38 -116 2 -8 7
-26 10 -41 7 -33 62 -98 82 -98 12 0 12 -4 0 -29 -22 -41 -71 -79 -111 -86
-19 -3 -51 -7 -70 -10 -74 -12 -135 -109 -119 -192 9 -48 66 -110 116 -125 77
-23 247 21 333 86 l31 24 52 -34 c65 -44 148 -73 231 -80 84 -7 144 20 179 81
58 101 -16 245 -127 245 -53 1 -117 34 -141 72 -11 18 -20 35 -20 38 1 3 15
14 32 25 95 61 88 218 -12 274 -34 19 -53 21 -191 21 -106 -1 -164 -5 -185
-14z"/>
</g>
</svg>
